<svg width="72" height="72" viewBox="0 0 72 72" fill="none" xmlns="http://www.w3.org/2000/svg">
    <path d="M72 36C72 55.8823 55.8823 72 36 72C16.1178 72 0 55.8823 0 36C0 16.1178 16.1178 0 36 0C55.8823 0 72 16.1178 72 36Z" fill="black" fill-opacity="0.45"/>
    <path d="M26.8213 25.7129L40.4303 21.9982L39.7096 20.5415C39.2381 19.5946 38.088 19.2036 37.1411 19.6751L24.9582 25.7129H26.8213Z" fill="white"/>
    <path d="M44.6555 22.1056C44.4869 22.1056 44.3182 22.1286 44.1495 22.1746L31.1884 25.713H47.1013L46.5033 23.5202C46.2733 22.6653 45.4989 22.1056 44.6555 22.1056Z" fill="white"/>
    <path d="M49.0989 27.0545H20.7654C20.1597 27.0545 19.6192 27.3343 19.2665 27.7752C19.1055 27.9784 18.9828 28.2122 18.9138 28.4691C18.8716 28.6301 18.8448 28.7987 18.8448 28.9712V50.3278C18.8448 51.3859 19.7035 52.2445 20.7616 52.2445H49.0951C50.1532 52.2445 51.0118 51.3859 51.0118 50.3278V44.98H39.6378C37.8399 44.98 36.3793 43.5194 36.3793 41.7215V37.4587C36.3793 36.5769 36.732 35.7758 37.3032 35.1893C37.8092 34.6679 38.4877 34.3152 39.2468 34.227C39.3733 34.2117 39.5036 34.204 39.634 34.204H51.0118V28.9712C51.0157 27.9132 50.157 27.0545 49.0989 27.0545Z" fill="white"/>
    <path d="M52.3564 36.0367C52.1648 35.8603 51.9386 35.7261 51.6856 35.638C51.49 35.5728 51.2831 35.5345 51.0645 35.5345H39.6368C38.5787 35.5345 37.7201 36.3932 37.7201 37.4513V41.7179C37.7201 42.776 38.5787 43.6347 39.6368 43.6347H51.0645C51.2831 43.6347 51.4901 43.5964 51.6856 43.5312C51.9386 43.4468 52.1648 43.3088 52.3564 43.1325C52.7398 42.7837 52.9813 42.2776 52.9813 41.718V37.4513C52.9813 36.8915 52.7398 36.3855 52.3564 36.0367ZM43.639 39.966C43.639 40.495 43.2097 40.9244 42.6806 40.9244H42.0443C41.5153 40.9244 41.0859 40.495 41.0859 39.966V39.3297C41.0859 39.023 41.2277 38.7508 41.4539 38.5782C41.6188 38.4517 41.822 38.3713 42.0443 38.3713H42.6806C43.2097 38.3713 43.639 38.8006 43.639 39.3297V39.966Z" fill="white"/>
</svg>
