<svg width="209" height="51" viewBox="0 0 209 51" fill="none" xmlns="http://www.w3.org/2000/svg">
<path d="M50.7123 23.4758C42.889 23.4758 36.4812 18.7938 36.1238 12.8173C35.9387 9.71878 37.3242 6.78 40.0269 4.54302C42.731 2.30491 46.3749 1.07227 50.2908 1.07227H62.9939C63.8098 1.07227 64.4734 1.59636 64.4734 2.2408V2.94035C64.4734 3.58479 63.8098 4.10889 62.9939 4.10889H50.2908C47.4443 4.10889 44.6932 5.05249 42.7424 6.6979C40.7659 8.36579 39.7834 10.542 39.9756 12.8274C40.3345 17.0955 45.0122 20.4392 50.6268 20.4392H62.9924C63.8084 20.4392 64.4719 20.9633 64.4719 21.6077V22.3062C64.4719 22.9506 63.8084 23.4747 62.9924 23.4747H50.7123V23.4758Z" fill="white"/>
<path d="M121.799 23.4694C120.45 23.4694 119.152 23.2309 117.943 22.7597C116.197 22.0894 114.783 20.9681 113.958 19.6027C113.345 18.6468 113.037 17.6244 113.037 16.5504V2.25008C113.037 1.60564 113.701 1.08154 114.517 1.08154H115.401C116.217 1.08154 116.88 1.60564 116.88 2.25008V17.0092L116.886 17.0475C117.178 18.8087 118.939 20.1999 121.169 20.4305L121.216 20.435H134.693C135.509 20.435 136.172 20.9591 136.172 21.6035V22.302C136.172 22.9464 135.509 23.4705 134.693 23.4705H121.796L121.799 23.4694Z" fill="white"/>
<path d="M2.67419 23.4694C1.85826 23.4694 1.1947 22.9453 1.1947 22.3008V21.6024C1.1947 20.958 1.85826 20.4339 2.67419 20.4339H22.4572C23.9253 20.4339 25.3008 19.9176 26.2321 19.0156C27.1548 18.1227 27.5137 16.9564 27.2189 15.8148C26.7632 14.0558 24.7127 12.7793 22.3433 12.7793H7.30774C5.40106 12.7793 3.60688 12.2069 2.25839 11.1677C1.87392 10.8775 1.56635 10.5907 1.31573 10.2859C0.449969 9.30744 0 8.17488 0 6.99285V6.85339C0 3.67055 3.27794 1.08154 7.30774 1.08154H27.7671C28.583 1.08154 29.2466 1.60564 29.2466 2.25008V2.96313C29.2466 3.60757 28.583 4.13167 27.7671 4.13167H7.30916C5.39964 4.13167 3.84468 5.35869 3.84468 6.86801V6.99397C3.84468 8.50216 5.39821 9.72919 7.30916 9.72919H22.4586C24.9007 9.72919 27.2388 10.5468 28.8764 11.974L28.9049 11.9988L28.9362 12.0213C29.0202 12.0786 29.0971 12.1596 29.1854 12.253C30.7332 13.7544 31.4039 15.618 31.0906 17.5198C30.5324 20.913 26.6963 23.4716 22.1696 23.4716H2.67419V23.4694Z" fill="white"/>
<path d="M142.704 23.5001C142.185 23.5001 141.713 23.2909 141.442 22.9423C141.174 22.597 141.15 22.1753 141.378 21.8131L156.085 1.68813C156.342 1.28775 156.835 1.04932 157.403 1.04932C157.971 1.04932 158.464 1.28775 158.722 1.68813L173.43 21.8131C173.656 22.1753 173.633 22.597 173.366 22.9423C173.095 23.2909 172.624 23.5001 172.105 23.5001L171.036 23.4967C170.506 23.4945 169.888 23.0772 169.34 22.3507L157.405 5.76959L145.537 22.2596C144.699 23.5001 144.223 23.5001 143.764 23.5001H142.705H142.704Z" fill="white"/>
<path d="M204.799 23.4767C204.241 23.4767 203.735 23.2327 203.482 22.8401L203.453 22.7974L196.029 14.9179C194.94 13.5166 192.972 12.6472 190.883 12.6472H178.98C178.162 12.6472 177.498 12.122 177.498 11.4764V10.7825C177.498 10.1369 178.162 9.61169 178.98 9.61169H201.396C201.93 9.61169 202.401 9.52733 202.84 9.35526C204.056 8.92676 204.859 7.94491 204.859 6.86185C204.859 6.15105 204.499 5.45826 203.844 4.91054L203.815 4.88804C203.139 4.38081 202.301 4.11314 201.394 4.11314H178.978C178.161 4.11314 177.496 3.58792 177.496 2.94235V2.24842C177.496 1.60286 178.161 1.07764 178.978 1.07764H201.394C203.345 1.07764 205.181 1.67821 206.562 2.76915C207.942 3.87246 208.702 5.32779 208.702 6.8641C208.702 9.21018 206.995 11.3212 204.453 12.1186C202.932 12.5955 200.67 12.6191 200.231 12.6191H200.09L198.605 12.5943L207.143 21.8201C207.352 22.1766 207.324 22.586 207.062 22.9234C206.79 23.272 206.318 23.4812 205.8 23.4812H204.796L204.799 23.4767Z" fill="white"/>
<path d="M74.385 23.4996C73.8539 23.4996 73.3697 23.286 73.0921 22.9283C72.8172 22.574 72.793 22.1422 73.0266 21.771L88.0934 1.15344C88.3569 0.744055 88.8624 0.5 89.4447 0.5C90.0271 0.5 90.5312 0.744055 90.7961 1.15344L105.863 21.771C106.095 22.1422 106.071 22.574 105.797 22.9272C105.52 23.2848 105.037 23.4985 104.506 23.4985L103.409 23.4952C102.867 23.4929 102.235 23.0655 101.672 22.321L89.4433 5.33499L77.2856 22.2288C76.4255 23.4996 75.94 23.4996 75.4686 23.4996H74.3836H74.385Z" fill="white"/>
<path d="M84.1433 4.26236L82.4944 5.0575C81.0263 5.76493 79.7718 6.48359 78.6582 7.2495C75.3319 9.45612 72.4768 13.0213 73.5904 16.0119L73.6174 16.0883L71.6709 18.5997L71.4886 18.3197C71.1654 17.8192 70.9205 17.2895 70.7652 16.744C69.2886 11.2916 75.6124 6.48922 82.3078 4.74147L84.1433 4.26123V4.26236Z" fill="white"/>
<path d="M107.196 10.5837C107.054 13.7845 104.62 16.9257 100.35 19.4338C99.729 19.7982 99.0811 20.1412 98.4204 20.4561C97.1117 21.0724 95.7334 21.601 94.3279 22.0363C91.2422 22.9889 88.0582 23.4691 84.9583 23.4691C83.6369 23.4691 82.3325 23.3814 81.0524 23.2059L80.5469 23.1396L82.5062 20.5202L82.6486 20.5303C85.9793 20.7901 89.8012 20.3346 93.4066 19.2549C94.5643 18.9085 95.6593 18.5093 96.6618 18.0673C97.5973 17.6534 98.4759 17.2024 99.2819 16.7188C101.459 15.4265 104.155 13.2863 104.643 10.4532C105.211 6.6563 100.865 4.30685 96.6134 3.379L94.644 2.94824L96.6831 3.03596C99.4684 3.15181 102.057 3.89747 103.968 5.12674C106.123 6.51347 107.236 8.4018 107.196 10.5837Z" fill="white"/>
<path d="M3.808 45.5V35.404H0.464V34.3H8.496V35.404H5.152V45.5H3.808ZM12.0571 45.5V33.98H13.4011V38.924C13.6678 38.4333 14.0465 38.0547 14.5371 37.788C15.0278 37.5107 15.5611 37.372 16.1371 37.372C17.0545 37.372 17.7905 37.66 18.3451 38.236C18.8998 38.8013 19.1771 39.676 19.1771 40.86V45.5H17.8491V41.004C17.8491 39.3507 17.1825 38.524 15.8491 38.524C15.1558 38.524 14.5745 38.7747 14.1051 39.276C13.6358 39.7667 13.4011 40.4707 13.4011 41.388V45.5H12.0571ZM26.7814 45.692C26.024 45.692 25.352 45.5213 24.7654 45.18C24.1787 44.828 23.7147 44.3427 23.3734 43.724C23.0427 43.1053 22.8774 42.3747 22.8774 41.532C22.8774 40.7 23.0427 39.9747 23.3734 39.356C23.704 38.7267 24.1627 38.2413 24.7494 37.9C25.3467 37.548 26.0347 37.372 26.8134 37.372C27.5814 37.372 28.2427 37.548 28.7974 37.9C29.3627 38.2413 29.7947 38.6947 30.0934 39.26C30.392 39.8253 30.5414 40.4333 30.5414 41.084C30.5414 41.2013 30.536 41.3187 30.5254 41.436C30.5254 41.5533 30.5254 41.6867 30.5254 41.836H24.2054C24.2374 42.444 24.376 42.9507 24.6214 43.356C24.8774 43.7507 25.192 44.0493 25.5654 44.252C25.9494 44.4547 26.3547 44.556 26.7814 44.556C27.336 44.556 27.8 44.428 28.1734 44.172C28.5467 43.916 28.8187 43.5693 28.9894 43.132H30.3174C30.104 43.868 29.6934 44.4813 29.0854 44.972C28.488 45.452 27.72 45.692 26.7814 45.692ZM26.7814 38.508C26.1414 38.508 25.5707 38.7053 25.0694 39.1C24.5787 39.484 24.296 40.0493 24.2214 40.796H29.2134C29.1814 40.0813 28.936 39.5213 28.4774 39.116C28.0187 38.7107 27.4534 38.508 26.7814 38.508ZM40.6371 45.5V34.3H47.4531V35.404H41.9811V39.34H46.6371V40.428H41.9811V45.5H40.6371ZM54 45.692C53.0613 45.692 52.3147 45.4093 51.76 44.844C51.2053 44.268 50.928 43.388 50.928 42.204V37.564H52.272V42.06C52.272 43.7133 52.9493 44.54 54.304 44.54C54.9973 44.54 55.568 44.2947 56.016 43.804C56.4747 43.3027 56.704 42.5933 56.704 41.676V37.564H58.048V45.5H56.832L56.736 44.076C56.4907 44.5773 56.1227 44.972 55.632 45.26C55.152 45.548 54.608 45.692 54 45.692ZM65.3963 45.5C64.6709 45.5 64.1003 45.324 63.6843 44.972C63.2683 44.62 63.0603 43.9853 63.0603 43.068V38.7H61.6842V37.564H63.0603L63.2363 35.66H64.4043V37.564H66.7403V38.7H64.4043V43.068C64.4043 43.5693 64.5056 43.9107 64.7083 44.092C64.9109 44.2627 65.2683 44.348 65.7803 44.348H66.6123V45.5H65.3963ZM73.3438 45.692C72.4051 45.692 71.6584 45.4093 71.1038 44.844C70.5491 44.268 70.2718 43.388 70.2718 42.204V37.564H71.6158V42.06C71.6158 43.7133 72.2931 44.54 73.6478 44.54C74.3411 44.54 74.9118 44.2947 75.3598 43.804C75.8184 43.3027 76.0478 42.5933 76.0478 41.676V37.564H77.3918V45.5H76.1758L76.0798 44.076C75.8344 44.5773 75.4664 44.972 74.9758 45.26C74.4958 45.548 73.9518 45.692 73.3438 45.692ZM81.604 45.5V37.564H82.82L82.932 39.084C83.1773 38.5613 83.5507 38.1453 84.052 37.836C84.5533 37.5267 85.172 37.372 85.908 37.372V38.78H85.54C85.0707 38.78 84.6387 38.8653 84.244 39.036C83.8493 39.196 83.5347 39.4733 83.3 39.868C83.0653 40.2627 82.948 40.8067 82.948 41.5V45.5H81.604ZM92.6876 45.692C91.9303 45.692 91.2583 45.5213 90.6716 45.18C90.085 44.828 89.621 44.3427 89.2796 43.724C88.949 43.1053 88.7836 42.3747 88.7836 41.532C88.7836 40.7 88.949 39.9747 89.2796 39.356C89.6103 38.7267 90.069 38.2413 90.6556 37.9C91.253 37.548 91.941 37.372 92.7196 37.372C93.4876 37.372 94.149 37.548 94.7036 37.9C95.269 38.2413 95.701 38.6947 95.9996 39.26C96.2983 39.8253 96.4476 40.4333 96.4476 41.084C96.4476 41.2013 96.4423 41.3187 96.4316 41.436C96.4316 41.5533 96.4316 41.6867 96.4316 41.836H90.1116C90.1436 42.444 90.2823 42.9507 90.5276 43.356C90.7836 43.7507 91.0983 44.0493 91.4716 44.252C91.8556 44.4547 92.261 44.556 92.6876 44.556C93.2423 44.556 93.7063 44.428 94.0796 44.172C94.453 43.916 94.725 43.5693 94.8956 43.132H96.2236C96.0103 43.868 95.5996 44.4813 94.9916 44.972C94.3943 45.452 93.6263 45.692 92.6876 45.692ZM92.6876 38.508C92.0476 38.508 91.477 38.7053 90.9756 39.1C90.485 39.484 90.2023 40.0493 90.1276 40.796H95.1196C95.0876 40.0813 94.8423 39.5213 94.3836 39.116C93.925 38.7107 93.3596 38.508 92.6876 38.508ZM110.079 45.692C109.333 45.692 108.661 45.5213 108.063 45.18C107.466 44.8387 106.991 44.3587 106.639 43.74C106.298 43.1107 106.127 42.3747 106.127 41.532C106.127 40.6893 106.303 39.9587 106.655 39.34C107.007 38.7107 107.482 38.2253 108.079 37.884C108.687 37.5427 109.365 37.372 110.111 37.372C110.858 37.372 111.53 37.5427 112.127 37.884C112.725 38.2253 113.194 38.7107 113.535 39.34C113.887 39.9587 114.063 40.6893 114.063 41.532C114.063 42.3747 113.887 43.1107 113.535 43.74C113.183 44.3587 112.703 44.8387 112.095 45.18C111.498 45.5213 110.826 45.692 110.079 45.692ZM110.079 44.54C110.538 44.54 110.965 44.428 111.359 44.204C111.754 43.98 112.074 43.644 112.319 43.196C112.565 42.748 112.687 42.1933 112.687 41.532C112.687 40.8707 112.565 40.316 112.319 39.868C112.085 39.42 111.77 39.084 111.375 38.86C110.981 38.636 110.559 38.524 110.111 38.524C109.653 38.524 109.226 38.636 108.831 38.86C108.437 39.084 108.117 39.42 107.871 39.868C107.626 40.316 107.503 40.8707 107.503 41.532C107.503 42.1933 107.626 42.748 107.871 43.196C108.117 43.644 108.431 43.98 108.815 44.204C109.21 44.428 109.631 44.54 110.079 44.54ZM118.364 45.5V38.7H117.164V37.564H118.364V36.188C118.364 35.42 118.556 34.86 118.94 34.508C119.324 34.156 119.884 33.98 120.62 33.98H121.42V35.132H120.828C120.423 35.132 120.135 35.2173 119.964 35.388C119.793 35.548 119.708 35.8253 119.708 36.22V37.564H121.66V38.7H119.708V45.5H118.364ZM135.143 45.692C134.321 45.692 133.607 45.5427 132.999 45.244C132.391 44.9453 131.921 44.5293 131.591 43.996C131.26 43.4627 131.095 42.844 131.095 42.14H132.503C132.503 42.5773 132.604 42.9827 132.807 43.356C133.009 43.7187 133.303 44.012 133.687 44.236C134.081 44.4493 134.567 44.556 135.143 44.556C135.9 44.556 136.487 44.3747 136.903 44.012C137.319 43.6493 137.527 43.196 137.527 42.652C137.527 42.204 137.431 41.8467 137.239 41.58C137.047 41.3027 136.785 41.0787 136.455 40.908C136.135 40.7373 135.761 40.588 135.335 40.46C134.919 40.332 134.481 40.188 134.023 40.028C133.159 39.7293 132.519 39.3613 132.103 38.924C131.687 38.476 131.479 37.8947 131.479 37.18C131.468 36.5827 131.607 36.0547 131.895 35.596C132.183 35.1267 132.588 34.764 133.111 34.508C133.644 34.2413 134.273 34.108 134.999 34.108C135.713 34.108 136.332 34.2413 136.855 34.508C137.388 34.7747 137.799 35.1427 138.087 35.612C138.385 36.0813 138.54 36.6147 138.551 37.212H137.143C137.143 36.9027 137.063 36.5987 136.903 36.3C136.743 35.9907 136.497 35.74 136.167 35.548C135.847 35.356 135.441 35.26 134.951 35.26C134.343 35.2493 133.841 35.404 133.447 35.724C133.063 36.044 132.871 36.4867 132.871 37.052C132.871 37.532 133.004 37.9 133.271 38.156C133.548 38.412 133.932 38.6253 134.423 38.796C134.913 38.956 135.479 39.1427 136.119 39.356C136.652 39.548 137.132 39.772 137.559 40.028C137.985 40.284 138.316 40.6147 138.551 41.02C138.796 41.4253 138.919 41.9427 138.919 42.572C138.919 43.1053 138.78 43.612 138.503 44.092C138.225 44.5613 137.804 44.9453 137.239 45.244C136.684 45.5427 135.985 45.692 135.143 45.692ZM146.393 45.692C145.635 45.692 144.953 45.5213 144.345 45.18C143.747 44.828 143.273 44.3427 142.921 43.724C142.579 43.0947 142.409 42.364 142.409 41.532C142.409 40.7 142.579 39.9747 142.921 39.356C143.273 38.7267 143.747 38.2413 144.345 37.9C144.953 37.548 145.635 37.372 146.393 37.372C147.331 37.372 148.121 37.6173 148.761 38.108C149.411 38.5987 149.822 39.2547 149.993 40.076H148.617C148.51 39.5853 148.249 39.2067 147.833 38.94C147.417 38.6627 146.931 38.524 146.377 38.524C145.929 38.524 145.507 38.636 145.113 38.86C144.718 39.084 144.398 39.42 144.153 39.868C143.907 40.316 143.785 40.8707 143.785 41.532C143.785 42.1933 143.907 42.748 144.153 43.196C144.398 43.644 144.718 43.9853 145.113 44.22C145.507 44.444 145.929 44.556 146.377 44.556C146.931 44.556 147.417 44.4227 147.833 44.156C148.249 43.8787 148.51 43.4893 148.617 42.988H149.993C149.833 43.788 149.427 44.4387 148.777 44.94C148.126 45.4413 147.331 45.692 146.393 45.692ZM156.51 45.692C155.848 45.692 155.299 45.58 154.862 45.356C154.424 45.132 154.099 44.8333 153.886 44.46C153.672 44.0867 153.566 43.6813 153.566 43.244C153.566 42.4333 153.875 41.8093 154.494 41.372C155.112 40.9347 155.955 40.716 157.022 40.716H159.166V40.62C159.166 39.9267 158.984 39.404 158.622 39.052C158.259 38.6893 157.774 38.508 157.166 38.508C156.643 38.508 156.19 38.6413 155.806 38.908C155.432 39.164 155.198 39.5427 155.102 40.044H153.726C153.779 39.468 153.971 38.9827 154.302 38.588C154.643 38.1933 155.064 37.8947 155.566 37.692C156.067 37.4787 156.6 37.372 157.166 37.372C158.275 37.372 159.107 37.6707 159.662 38.268C160.227 38.8547 160.51 39.6387 160.51 40.62V45.5H159.31L159.23 44.076C159.006 44.524 158.675 44.908 158.238 45.228C157.811 45.5373 157.235 45.692 156.51 45.692ZM156.718 44.556C157.23 44.556 157.667 44.4227 158.03 44.156C158.403 43.8893 158.686 43.5427 158.878 43.116C159.07 42.6893 159.166 42.2413 159.166 41.772V41.756H157.134C156.344 41.756 155.784 41.8947 155.454 42.172C155.134 42.4387 154.974 42.7747 154.974 43.18C154.974 43.596 155.123 43.932 155.422 44.188C155.731 44.4333 156.163 44.556 156.718 44.556ZM164.526 45.5V33.98H165.87V45.5H164.526ZM172.713 45.692C172.051 45.692 171.502 45.58 171.065 45.356C170.627 45.132 170.302 44.8333 170.089 44.46C169.875 44.0867 169.769 43.6813 169.769 43.244C169.769 42.4333 170.078 41.8093 170.697 41.372C171.315 40.9347 172.158 40.716 173.225 40.716H175.369V40.62C175.369 39.9267 175.187 39.404 174.825 39.052C174.462 38.6893 173.977 38.508 173.369 38.508C172.846 38.508 172.393 38.6413 172.009 38.908C171.635 39.164 171.401 39.5427 171.305 40.044H169.929C169.982 39.468 170.174 38.9827 170.505 38.588C170.846 38.1933 171.267 37.8947 171.769 37.692C172.27 37.4787 172.803 37.372 173.369 37.372C174.478 37.372 175.31 37.6707 175.865 38.268C176.43 38.8547 176.713 39.6387 176.713 40.62V45.5H175.513L175.433 44.076C175.209 44.524 174.878 44.908 174.441 45.228C174.014 45.5373 173.438 45.692 172.713 45.692ZM172.921 44.556C173.433 44.556 173.87 44.4227 174.233 44.156C174.606 43.8893 174.889 43.5427 175.081 43.116C175.273 42.6893 175.369 42.2413 175.369 41.772V41.756H173.337C172.547 41.756 171.987 41.8947 171.657 42.172C171.337 42.4387 171.177 42.7747 171.177 43.18C171.177 43.596 171.326 43.932 171.625 44.188C171.934 44.4333 172.366 44.556 172.921 44.556ZM184.969 45.692C184.318 45.692 183.737 45.5587 183.225 45.292C182.724 45.0253 182.34 44.652 182.073 44.172L181.945 45.5H180.729V33.98H182.073V38.876C182.329 38.492 182.692 38.1453 183.161 37.836C183.641 37.5267 184.249 37.372 184.985 37.372C185.774 37.372 186.462 37.5533 187.049 37.916C187.636 38.2787 188.089 38.7747 188.409 39.404C188.74 40.0333 188.905 40.748 188.905 41.548C188.905 42.348 188.74 43.0627 188.409 43.692C188.089 44.3107 187.63 44.8013 187.033 45.164C186.446 45.516 185.758 45.692 184.969 45.692ZM184.825 44.524C185.358 44.524 185.828 44.4013 186.233 44.156C186.638 43.9 186.958 43.548 187.193 43.1C187.428 42.652 187.545 42.1293 187.545 41.532C187.545 40.9347 187.428 40.412 187.193 39.964C186.958 39.516 186.638 39.1693 186.233 38.924C185.828 38.668 185.358 38.54 184.825 38.54C184.292 38.54 183.822 38.668 183.417 38.924C183.012 39.1693 182.692 39.516 182.457 39.964C182.222 40.412 182.105 40.9347 182.105 41.532C182.105 42.1293 182.222 42.652 182.457 43.1C182.692 43.548 183.012 43.9 183.417 44.156C183.822 44.4013 184.292 44.524 184.825 44.524ZM192.776 45.5V33.98H194.12V45.5H192.776ZM201.891 45.692C201.133 45.692 200.461 45.5213 199.875 45.18C199.288 44.828 198.824 44.3427 198.483 43.724C198.152 43.1053 197.987 42.3747 197.987 41.532C197.987 40.7 198.152 39.9747 198.483 39.356C198.813 38.7267 199.272 38.2413 199.859 37.9C200.456 37.548 201.144 37.372 201.923 37.372C202.691 37.372 203.352 37.548 203.907 37.9C204.472 38.2413 204.904 38.6947 205.203 39.26C205.501 39.8253 205.651 40.4333 205.651 41.084C205.651 41.2013 205.645 41.3187 205.635 41.436C205.635 41.5533 205.635 41.6867 205.635 41.836H199.315C199.347 42.444 199.485 42.9507 199.731 43.356C199.987 43.7507 200.301 44.0493 200.675 44.252C201.059 44.4547 201.464 44.556 201.891 44.556C202.445 44.556 202.909 44.428 203.283 44.172C203.656 43.916 203.928 43.5693 204.099 43.132H205.427C205.213 43.868 204.803 44.4813 204.195 44.972C203.597 45.452 202.829 45.692 201.891 45.692ZM201.891 38.508C201.251 38.508 200.68 38.7053 200.179 39.1C199.688 39.484 199.405 40.0493 199.331 40.796H204.323C204.291 40.0813 204.045 39.5213 203.587 39.116C203.128 38.7107 202.563 38.508 201.891 38.508Z" fill="white"/>
</svg>
