<svg width="128" height="128" viewBox="0 0 128 128" fill="none" xmlns="http://www.w3.org/2000/svg">
<mask id="mask0_2040_1122" style="mask-type:luminance" maskUnits="userSpaceOnUse" x="14" y="0" width="101" height="128">
<path d="M115 0.490234H14V127.235H115V0.490234Z" fill="white"/>
</mask>
<g mask="url(#mask0_2040_1122)">
<path d="M85.2419 11.8947L111.685 37.6557C113.936 39.8438 115.044 42.0579 115.009 44.289C114.974 46.5201 114.006 48.5538 112.112 50.3987C110.132 52.3296 107.995 53.3079 105.709 53.3507C103.423 53.3851 101.155 52.3039 98.9038 50.1157L71.859 23.7712C68.788 20.7764 65.8218 18.6567 62.969 17.4125C60.1161 16.1682 57.115 15.9708 53.9743 16.8289C50.8249 17.6785 47.4487 19.8667 43.8282 23.385C38.838 28.2506 36.4561 32.8158 36.7005 37.0808C36.9447 41.3456 39.4224 45.7735 44.1248 50.3474L71.3879 76.915C73.6649 79.1289 74.7815 81.3427 74.7466 83.5396C74.7118 85.745 73.7346 87.7788 71.8065 89.658C69.8873 91.5287 67.7673 92.507 65.4641 92.5842C63.1609 92.6615 60.8665 91.5889 58.5981 89.3748L32.1551 63.6139C27.8541 59.4263 24.7483 55.4618 22.8377 51.7202C20.9271 47.9789 20.2117 43.7484 20.709 39.0287C21.1539 34.9869 22.4713 31.0738 24.6698 27.281C26.8595 23.488 30.0003 19.6093 34.0745 15.6362C38.9251 10.9079 43.5576 7.2866 47.9721 4.7637C52.3779 2.24082 56.6439 0.842074 60.7617 0.550312C64.8882 0.25855 68.9538 1.06519 72.9756 2.97022C76.9975 4.87526 81.0805 7.84438 85.2332 11.8947H85.2419Z" fill="url(#paint0_linear_2040_1122)"/>
<path d="M43.758 115.839L17.3237 90.0784C15.0729 87.8816 13.9649 85.6762 13.9998 83.4451C14.0347 81.214 15.0031 79.1803 16.8963 77.3352C18.8766 75.4045 21.0141 74.4262 23.2998 74.3832C25.5856 74.349 27.8538 75.4215 30.1047 77.6184L57.1409 103.963C60.2206 106.958 63.1781 109.077 66.0308 110.322C68.8838 111.566 71.8849 111.755 75.0343 110.905C78.1837 110.056 81.5599 107.867 85.1804 104.34C90.1708 99.4748 92.5525 94.9096 92.3083 90.6448C92.0639 86.3798 89.5862 81.9519 84.884 77.3697L70.3582 63.3392C68.0811 61.1253 66.9644 58.9112 66.9993 56.7146C67.0341 54.5092 68.0112 52.4753 69.9393 50.5961C71.8587 48.7253 73.9788 47.7471 76.2818 47.6699C78.5849 47.5927 80.8794 48.6653 83.1478 50.8793L96.8448 64.103C101.146 68.2905 104.252 72.2551 106.162 75.9966C108.073 79.738 108.788 83.9685 108.291 88.6882C107.846 92.73 106.529 96.643 104.33 100.436C102.14 104.229 98.9996 108.108 94.9254 112.081C90.0748 116.809 85.4422 120.43 81.0278 122.953C76.6133 125.476 72.3473 126.883 68.2208 127.175C64.0942 127.467 60.0287 126.66 56.0069 124.755C51.9849 122.85 47.9019 119.881 43.7493 115.831L43.758 115.839Z" fill="url(#paint1_linear_2040_1122)"/>
<path d="M60.2467 49.369C65.6094 49.369 69.9567 45.0929 69.9567 39.8179C69.9567 34.5432 65.6094 30.2671 60.2467 30.2671C54.884 30.2671 50.5366 34.5432 50.5366 39.8179C50.5366 45.0929 54.884 49.369 60.2467 49.369Z" fill="url(#paint2_radial_2040_1122)"/>
</g>
<defs>
<linearGradient id="paint0_linear_2040_1122" x1="107.336" y1="26.9031" x2="25.8393" y2="63.724" gradientUnits="userSpaceOnUse">
<stop stop-color="#201C1B"/>
<stop offset="0.36" stop-color="#77390D"/>
<stop offset="0.67" stop-color="#EA8101"/>
<stop offset="1" stop-color="#F4B852"/>
</linearGradient>
<linearGradient id="paint1_linear_2040_1122" x1="23.929" y1="101.892" x2="118.633" y2="73.2368" gradientUnits="userSpaceOnUse">
<stop stop-color="#1F1D1C"/>
<stop offset="0.37" stop-color="#77390D"/>
<stop offset="0.67" stop-color="#EA8101"/>
<stop offset="1" stop-color="#F4FB52"/>
</linearGradient>
<radialGradient id="paint2_radial_2040_1122" cx="0" cy="0" r="1" gradientUnits="userSpaceOnUse" gradientTransform="translate(60.2467 39.8266) scale(9.71002 9.55094)">
<stop stop-color="#F4B852"/>
<stop offset="0.33" stop-color="#EA8101"/>
<stop offset="0.64" stop-color="#77390D"/>
<stop offset="1" stop-color="#211C1D"/>
</radialGradient>
</defs>
</svg>
